<svg width="187" height="187" viewBox="0 0 187 187" fill="none" xmlns="http://www.w3.org/2000/svg">
<path d="M176.714 10.2865C169.853 3.4257 161.597 0 151.938 0H35.0619C25.4026 0 17.1472 3.4257 10.2865 10.2865C3.4257 17.1472 0 25.4026 0 35.0619V151.938C0 161.597 3.4257 169.853 10.2865 176.714C17.1472 183.574 25.4026 187 35.0619 187H62.3365C64.1148 187 65.4533 186.934 66.3518 186.813C67.3972 186.603 68.3408 186.046 69.0287 185.231C69.9179 184.295 70.3672 182.938 70.3672 181.159L70.3017 172.876C70.2642 167.597 70.2455 163.423 70.2455 160.334L67.4376 160.821C65.6592 161.148 63.4128 161.289 60.6891 161.251C57.8502 161.199 55.0203 160.914 52.2278 160.399C49.2552 159.851 46.4568 158.599 44.0661 156.749C41.5623 154.855 39.6948 152.243 38.7122 149.261L37.4955 146.453C36.4699 144.238 35.1815 142.155 33.6579 140.248C31.917 137.973 30.148 136.438 28.3603 135.624L27.5179 135.016C26.9305 134.595 26.3962 134.105 25.9267 133.555C25.4783 133.046 25.1091 132.471 24.8316 131.852C24.5883 131.281 24.7942 130.813 25.44 130.448C26.0952 130.074 27.2652 129.896 28.978 129.896L31.4116 130.27C33.0308 130.588 35.0432 131.562 37.43 133.181C39.8454 134.828 41.863 136.992 43.336 139.518C45.208 142.84 47.4543 145.377 50.0938 147.127C52.7333 148.868 55.3915 149.748 58.0684 149.748C60.7453 149.748 63.0572 149.542 65.0134 149.139C66.9051 148.748 68.7433 148.132 70.4889 147.305C71.2189 141.876 73.2032 137.683 76.4511 134.763C72.2427 134.35 68.0717 133.618 63.9744 132.573C59.9758 131.474 56.1303 129.88 52.5274 127.827C48.7576 125.775 45.428 123.002 42.7276 119.665C40.1349 116.418 38.0009 112.159 36.3349 106.889C34.6782 101.61 33.8451 95.5171 33.8451 88.6189C33.8451 78.8004 37.0462 70.4421 43.4577 63.5345C40.4625 56.159 40.7433 47.8755 44.3094 38.7122C46.6681 37.9728 50.1593 38.5251 54.7831 40.3502C59.4068 42.1754 62.7951 43.7385 64.9478 45.0301C67.1006 46.3405 68.8228 47.4356 70.1238 48.3248C77.7331 46.2072 85.5969 45.1427 93.4953 45.1612C101.535 45.1612 109.323 46.2188 116.876 48.3248L121.5 45.4045C125.057 43.2691 128.808 41.4764 132.704 40.0507C137.009 38.4221 140.285 37.9822 142.569 38.7122C146.219 47.8849 146.537 56.159 143.533 63.5439C149.944 70.4421 153.155 78.8004 153.155 88.6282C153.155 95.5264 152.322 101.638 150.656 106.945C148.999 112.262 146.846 116.521 144.207 119.731C141.459 123.024 138.115 125.771 134.351 127.827C130.42 130.017 126.601 131.599 122.904 132.573C118.807 133.621 114.636 134.357 110.427 134.772C114.639 138.423 116.754 144.179 116.754 152.05V181.159C116.754 182.535 116.951 183.649 117.363 184.501C117.552 184.911 117.822 185.279 118.157 185.583C118.491 185.887 118.883 186.121 119.31 186.27C120.208 186.588 120.994 186.794 121.687 186.869C122.38 186.963 123.372 186.991 124.664 186.991H151.938C161.597 186.991 169.853 183.565 176.714 176.704C183.565 169.853 187 161.588 187 151.929V35.0619C187 25.4026 183.574 17.1472 176.714 10.2865Z" fill="#F8F8F8"/>
</svg>
