<svg width="187" height="187" viewBox="0 0 187 187" fill="none" xmlns="http://www.w3.org/2000/svg">
<path d="M103.112 0.013121C109.935 -0.0130597 116.757 0.0555108 123.578 0.218811L125.392 0.284258C127.486 0.359054 129.552 0.452549 132.049 0.564743C141.997 1.03222 148.784 2.60294 154.74 4.91227C160.911 7.28705 166.109 10.5033 171.307 15.7016C176.06 20.3727 179.739 26.023 182.087 32.2596C184.397 38.2153 185.967 45.0124 186.435 54.9602C186.547 57.4472 186.641 59.5228 186.715 61.6171L186.771 63.4309C186.938 70.2485 187.009 77.0681 186.986 83.8877L186.996 90.8624V103.11C187.019 109.933 186.947 116.756 186.781 123.576L186.725 125.39C186.65 127.484 186.556 129.551 186.444 132.047C185.977 141.995 184.387 148.783 182.087 154.738C179.747 160.982 176.067 166.636 171.307 171.306C166.632 176.058 160.979 179.737 154.74 182.086C148.784 184.395 141.997 185.966 132.049 186.433C129.552 186.545 127.486 186.639 125.392 186.714L123.578 186.77C116.757 186.936 109.935 187.008 103.112 186.985L96.1372 186.994H83.8986C77.0759 187.017 70.2533 186.946 63.4325 186.779L61.6187 186.723C59.3993 186.643 57.1803 186.549 54.9619 186.443C45.014 185.975 38.2262 184.386 32.2612 182.086C26.0222 179.742 20.3709 176.063 15.7032 171.306C10.9448 166.634 7.26272 160.98 4.91389 154.738C2.60456 148.783 1.03384 141.995 0.566365 132.047C0.462239 129.829 0.368743 127.61 0.28588 125.39L0.239134 123.576C0.0667619 116.756 -0.0111591 109.933 0.00539468 103.11V83.8877C-0.0206995 77.0681 0.0478709 70.2486 0.211085 63.4309L0.276531 61.6171C0.351327 59.5228 0.444822 57.4472 0.557017 54.9602C1.02449 45.003 2.59521 38.2246 4.90454 32.2596C7.25476 26.0199 10.944 20.3712 15.7126 15.711C20.377 10.9497 26.0247 7.26435 32.2612 4.91227C38.2262 2.60294 45.0046 1.03222 54.9619 0.564743L61.6187 0.284258L63.4325 0.237511C70.2501 0.0652257 77.0696 -0.0126953 83.8893 0.0037722L103.112 0.013121ZM93.5006 46.7607C87.3066 46.6731 81.157 47.8174 75.4091 50.1272C69.6612 52.4369 64.4296 55.866 60.0185 60.2152C55.6074 64.5644 52.1047 69.7469 49.7139 75.4615C47.3231 81.1762 46.0919 87.309 46.0919 93.5036C46.0919 99.6983 47.3231 105.831 49.7139 111.546C52.1047 117.26 55.6074 122.443 60.0185 126.792C64.4296 131.141 69.6612 134.57 75.4091 136.88C81.157 139.19 87.3066 140.334 93.5006 140.247C105.899 140.247 117.789 135.321 126.556 126.555C135.323 117.788 140.248 105.897 140.248 93.499C140.248 81.1007 135.323 69.2103 126.556 60.4434C117.789 51.6765 105.899 46.7607 93.5006 46.7607ZM93.5006 65.4598C97.2264 65.3911 100.929 66.0656 104.391 67.4438C107.853 68.822 111.006 70.8763 113.665 73.4867C116.325 76.0972 118.437 79.2113 119.88 82.6474C121.322 86.0834 122.065 89.7724 122.066 93.4989C122.067 97.2254 121.325 100.915 119.883 104.351C118.442 107.788 116.331 110.903 113.672 113.514C111.014 116.125 107.861 118.18 104.4 119.56C100.938 120.939 97.2358 121.615 93.51 121.548C86.071 121.548 78.9367 118.592 73.6766 113.332C68.4165 108.072 65.4614 100.938 65.4614 93.499C65.4614 86.06 68.4165 78.9258 73.6766 73.6656C78.9367 68.4055 86.071 65.4504 93.51 65.4504L93.5006 65.4598ZM142.586 32.7364C139.569 32.8572 136.717 34.1403 134.625 36.317C132.534 38.4938 131.366 41.3954 131.366 44.414C131.366 47.4326 132.534 50.3342 134.625 52.5109C136.717 54.6877 139.569 55.9708 142.586 56.0915C145.685 56.0915 148.658 54.8602 150.849 52.6685C153.041 50.4768 154.272 47.5042 154.272 44.4046C154.272 41.3051 153.041 38.3325 150.849 36.1408C148.658 33.949 145.685 32.7177 142.586 32.7177V32.7364Z" fill="#F8F8F8"/>
</svg>
