<svg width="187" height="187" viewBox="0 0 187 187" fill="none" xmlns="http://www.w3.org/2000/svg">
<path d="M166.222 0C171.733 0 177.018 2.18908 180.914 6.08567C184.811 9.98226 187 15.2672 187 20.7778V166.222C187 171.733 184.811 177.018 180.914 180.914C177.018 184.811 171.733 187 166.222 187H20.7778C15.2672 187 9.98226 184.811 6.08567 180.914C2.18908 177.018 0 171.733 0 166.222V20.7778C0 15.2672 2.18908 9.98226 6.08567 6.08567C9.98226 2.18908 15.2672 0 20.7778 0H166.222ZM161.028 161.028V105.967C161.028 96.9844 157.46 88.37 151.108 82.0185C144.757 75.6671 136.142 72.0989 127.16 72.0989C118.329 72.0989 108.044 77.5011 103.058 85.6044V74.0728H74.0728V161.028H103.058V109.811C103.058 101.811 109.499 95.2661 117.498 95.2661C121.356 95.2661 125.055 96.7985 127.783 99.5261C130.51 102.254 132.043 105.953 132.043 109.811V161.028H161.028ZM40.3089 57.7622C44.9378 57.7622 49.3771 55.9234 52.6503 52.6503C55.9234 49.3771 57.7622 44.9378 57.7622 40.3089C57.7622 30.6472 49.9706 22.7517 40.3089 22.7517C35.6524 22.7517 31.1867 24.6014 27.8941 27.8941C24.6014 31.1867 22.7517 35.6524 22.7517 40.3089C22.7517 49.9706 30.6472 57.7622 40.3089 57.7622ZM54.7495 161.028V74.0728H25.9722V161.028H54.7495Z" fill="#F8F8F8"/>
</svg>
