<svg width="51" height="50" viewBox="0 0 51 50" fill="none" xmlns="http://www.w3.org/2000/svg">
<g clip-path="url(#clip0_309_166)">
<path d="M26.7152 27.5312C26.8043 25.8625 27.6261 24.3891 28.8542 23.3484C30.1513 22.2753 31.7849 21.6933 33.4683 21.7047C35.2355 21.7047 36.8621 22.3312 38.0746 23.3484C39.3042 24.3906 40.1168 25.8625 40.2136 27.5312C40.3027 29.2391 39.6199 30.8359 38.4074 32.0141C37.0782 33.2836 35.3063 33.9849 33.4683 33.9687C31.625 33.9859 29.8474 33.2848 28.5121 32.0141C27.3074 30.8344 26.6167 29.2391 26.7136 27.5312H26.7152ZM15.9652 30.9C15.9714 31.5516 16.1839 32.8203 16.4918 33.8125C17.1661 35.9446 18.2995 37.903 19.8121 39.55C21.4322 41.3326 23.4087 42.755 25.6136 43.725C28.0167 44.7812 30.6153 45.3194 33.2402 45.3047C35.8662 45.3127 38.4643 44.767 40.8652 43.7031C43.0683 42.7223 45.0439 41.2948 46.6667 39.5109C48.1734 37.8543 49.3034 35.8911 49.9793 33.7562C50.6303 31.6873 50.8081 29.4985 50.4996 27.3516C50.2086 25.2955 49.4872 23.3239 48.3824 21.5656C47.3642 19.9254 46.0571 18.4834 44.5246 17.3094L28.8683 5.27968C27.8433 4.49062 26.1183 4.49843 24.9949 5.27968C23.8558 6.07812 23.7246 7.39687 24.7324 8.23437L31.2449 13.5328L11.3636 13.5578C9.71831 13.5578 8.14956 14.6312 7.83081 16C7.51363 17.3828 8.61988 18.5312 10.3293 18.5375L20.3964 18.5234L2.36363 32.3562C0.671438 33.65 0.126126 35.8141 1.19331 37.175C2.27456 38.5672 4.57925 38.5672 6.29488 37.1828L16.0933 29.1656C16.0933 29.1656 15.948 30.2484 15.9636 30.8984L15.9652 30.9ZM41.1496 34.5203C39.1246 36.5812 36.2996 37.7516 33.2418 37.7516C30.1808 37.7594 27.348 36.6031 25.3308 34.5531C24.3768 33.5925 23.6408 32.4377 23.173 31.1672C22.7449 29.9732 22.5759 28.7018 22.6772 27.4375C22.7785 26.1732 23.1478 24.9449 23.7605 23.8344C24.3722 22.7388 25.1867 21.7695 26.1605 20.9781C28.123 19.3844 30.6214 18.5219 33.2418 18.5141C35.8527 18.5141 38.3527 19.3687 40.3121 20.9625C41.2903 21.7468 42.1056 22.715 42.7121 23.8125C43.323 24.9016 43.698 26.1141 43.8043 27.3687C43.9176 28.6456 43.7485 29.9318 43.3089 31.1359C42.8379 32.4048 42.1024 33.559 41.1511 34.5219L41.1496 34.5203Z" fill="#F8F8F8"/>
</g>
<defs>
<clipPath id="clip0_309_166">
<rect width="50" height="50" fill="current-color" transform="translate(0.647949)"/>
</clipPath>
</defs>
</svg>
