<svg width="33" height="50" viewBox="0 0 33 50" fill="none" xmlns="http://www.w3.org/2000/svg">
<path fill-rule="evenodd" clip-rule="evenodd" d="M7.80813 18.0179C6.89141 18.0179 5.98367 18.1985 5.13673 18.5493C4.2898 18.9001 3.52025 19.4143 2.87203 20.0625C2.22381 20.7108 1.70962 21.4803 1.3588 22.3272C1.00799 23.1742 0.82743 24.0819 0.82743 24.9986C0.82743 25.9154 1.00799 26.8231 1.3588 27.67C1.70962 28.517 2.22381 29.2865 2.87203 29.9348C3.52025 30.583 4.2898 31.0972 5.13673 31.448C5.98367 31.7988 6.89141 31.9794 7.80813 31.9794H14.7888V25.1392C14.7878 25.0455 14.7878 24.9518 14.7888 24.8581V18.0179H7.80813ZM14.7888 13.9641H7.80813C5.95638 13.9641 4.18046 13.2285 2.87107 11.9191C1.56169 10.6097 0.826078 8.83381 0.826078 6.98205C0.826078 5.1303 1.56169 3.35439 2.87107 2.045C4.18046 0.735607 5.95638 0 7.80813 0H14.7888V13.9641ZM18.8427 0V13.9641H25.8234C27.6513 13.9281 29.3923 13.1767 30.6723 11.8713C31.9524 10.5658 32.6694 8.81038 32.6694 6.98205C32.6694 5.15373 31.9524 3.39832 30.6723 2.09285C29.3923 0.787377 27.6513 0.0359655 25.8234 0H18.8427ZM25.8234 18.0152C23.991 18.015 22.232 18.7352 20.926 20.0205C19.62 21.3058 18.8718 23.053 18.8427 24.8851V25.1095C18.865 26.4851 19.2934 27.8234 20.0739 28.9563C20.8544 30.0893 21.9523 30.9663 23.2297 31.4773C24.5071 31.9883 25.9069 32.1104 27.2535 31.8284C28.6001 31.5464 29.8333 30.8727 30.7982 29.8921C31.7631 28.9114 32.4168 27.6675 32.6771 26.3166C32.9374 24.9657 32.7927 23.5679 32.2611 22.299C31.7296 21.03 30.835 19.9464 29.6896 19.1843C28.5442 18.4221 27.1992 18.0154 25.8234 18.0152ZM7.80813 36.0332C6.42683 36.0327 5.07639 36.4418 3.92762 37.2088C2.77885 37.9758 1.88335 39.0663 1.35438 40.3423C0.82541 41.6183 0.686728 43.0225 0.955879 44.3773C1.22503 45.7322 1.88992 46.9767 2.86646 47.9537C3.843 48.9306 5.08732 49.5959 6.44204 49.8656C7.79676 50.1353 9.20103 49.9972 10.4772 49.4687C11.7534 48.9402 12.8443 48.0451 13.6117 46.8966C14.3792 45.7482 14.7888 44.3979 14.7888 43.0166V36.0332H7.80813Z" fill="#F8F8F8"/>
</svg>
