<svg width="51" height="50" viewBox="0 0 51 50" fill="none" xmlns="http://www.w3.org/2000/svg">
<path d="M20.7042 21.0615L19.1511 26.0194H24.3181L22.7352 21.0615C22.4202 20.0705 22.146 18.9817 21.8934 17.9852C21.836 17.7561 21.7781 17.5271 21.7197 17.2983H21.6599C21.5568 17.6974 21.4563 18.1237 21.3504 18.5609C21.1495 19.4026 20.9404 20.2768 20.7042 21.0615Z" fill="#F8F8F8"/>
<path fill-rule="evenodd" clip-rule="evenodd" d="M10.8455 0.784616C20.2835 -0.261539 29.8082 -0.261539 39.2462 0.784616C44.4023 1.36023 48.5592 5.41942 49.1647 10.5945C50.2839 20.1646 50.2839 29.8325 49.1647 39.4025C48.5592 44.5777 44.4023 48.6368 39.2489 49.2152C29.81 50.2616 20.2844 50.2616 10.8455 49.2152C5.68936 48.6368 1.53243 44.5776 0.926945 39.4052C-0.192445 29.8343 -0.192445 20.1655 0.926945 10.5945C1.53243 5.41942 5.68936 1.36023 10.8455 0.784616ZM35.7219 19.9565V34.5016H32.0184V19.9565H35.7219ZM31.812 15.8946C31.812 14.7596 32.6456 13.8935 33.8701 13.8935C35.1273 13.8935 35.9011 14.7596 35.9337 15.8946C35.9337 16.9996 35.1246 17.8658 33.843 17.8658C32.6184 17.8658 31.812 16.9996 31.812 15.8946ZM26.7645 34.5016L24.9427 28.7971H18.5539L16.8216 34.5016H13.0285L19.4797 14.3713H24.1688L30.7097 34.5016H26.7645Z" fill="#F8F8F8"/>
</svg>
