<svg width="51" height="50" viewBox="0 0 51 50" fill="none" xmlns="http://www.w3.org/2000/svg">
<path fill-rule="evenodd" clip-rule="evenodd" d="M33.3212 12.7794C32.2522 9.45101 30.5375 6.50524 28.1213 3.97039C27.5105 3.32918 26.8315 2.74175 26.4054 1.94414C26.1361 1.43922 25.8796 0.927327 25.6173 0.419124L25.4506 0L25.4042 0.165022C25.3825 0.994239 24.9128 1.55622 24.3283 2.08125C23.6698 2.67155 23.0574 3.31276 22.4252 3.93221L20.481 6.48923L18.9092 9.38L17.8579 12.2186L17.8263 12.2625C17.2479 14.1628 16.9626 16.1168 16.8226 18.0896C16.7697 18.8314 16.8304 19.5835 16.8719 20.3289C16.9314 21.3946 17.1166 22.4418 17.3941 23.4734C18.4027 27.2196 20.4498 30.3267 23.2491 32.9671C23.7688 33.4576 24.3307 33.9039 24.873 34.3702L25.1132 35.1945L25.3365 36.4736L25.4432 37.809C25.442 38.0799 25.4309 38.3521 25.4469 38.6222C25.4514 38.6916 25.5417 38.7556 25.5926 38.8221L26.0458 38.9814L26.5175 39.1649L26.4366 37.9781L26.4329 36.809L26.5959 35.0282L26.7141 34.6407L27.0528 34.041C27.4707 33.7052 27.9185 33.3998 28.2991 33.0258C28.9875 32.3497 29.6747 31.6642 30.2908 30.9232C31.0925 29.9628 31.7772 28.9105 32.3306 27.7886C32.6997 27.0361 33.0478 26.2685 33.3355 25.4824C33.5892 24.7895 33.7464 24.0608 33.9464 23.3478L33.9989 23.1938C34.4115 21.2694 34.4808 19.3253 34.3294 17.3688C34.2074 15.7921 33.8368 14.2703 33.3212 12.7794ZM25.1522 33.4174C25.2154 33.1009 25.2938 32.7861 25.3508 32.4683C25.2938 32.7861 25.2158 33.1009 25.1522 33.4174ZM43.0382 40.9949C42.6991 40.3451 42.2016 39.8516 41.544 39.5278C40.9931 39.2568 40.4007 39.1378 39.7915 39.1205C39.335 39.1074 38.8769 39.1308 38.4196 39.1365C38.0136 39.1415 37.6072 39.1485 37.2012 39.1448C36.7238 39.1398 36.2464 39.1255 35.769 39.1119C35.6898 39.1095 35.6335 39.1255 35.5966 39.2059C35.5387 39.3311 35.4702 39.4518 35.3991 39.5889L35.4788 39.6144C35.7156 39.6562 35.9537 39.692 36.1894 39.7392C36.4923 39.7995 36.6286 39.9736 36.6425 40.2289C36.6631 40.5926 36.6713 40.9571 36.6701 41.3217C36.6639 42.7642 36.6536 44.2067 36.643 45.6488C36.6421 45.744 36.6405 45.8433 36.6146 45.9328C36.5847 46.0363 36.5522 46.1701 36.4751 46.221C36.3362 46.3102 36.1803 46.3696 36.0174 46.3955C35.7871 46.4332 35.7485 46.4435 35.6766 46.6701L35.6454 46.7834C35.611 46.907 35.6294 46.9312 35.7583 46.9324C36.4981 46.9406 37.2374 46.9566 37.9767 46.9542C38.6511 46.9517 39.3256 46.9928 39.9976 46.8659C40.6326 46.7465 41.2254 46.5371 41.7665 46.1828C42.4684 45.7227 42.9733 45.1077 43.2397 44.3052C43.4548 43.657 43.5029 42.9957 43.4298 42.3179C43.3842 41.8561 43.2513 41.4071 43.0382 40.9949ZM41.7422 44.9608C41.3465 45.6972 40.7562 46.189 39.9126 46.3187C39.3843 46.3996 38.8552 46.3762 38.3515 46.1763C38.0325 46.0498 37.9139 45.7744 37.904 45.4489C37.895 45.1298 37.8905 44.8107 37.8905 44.4916C37.8888 43.3692 37.8888 42.2469 37.8905 41.125C37.8913 40.7716 37.8975 40.4173 37.9032 40.0635C37.9073 39.8147 37.9594 39.7314 38.2021 39.7113C39.2677 39.6218 40.2845 39.7367 41.1289 40.4867C41.6511 40.9506 41.9483 41.5421 42.0719 42.2215C42.1232 42.5047 42.1388 42.7945 42.1708 43.0819C42.1449 43.7379 42.0563 44.3762 41.7422 44.9608ZM50.6867 43.7453C50.4765 43.2338 50.0783 42.9132 49.5779 42.7079C49.4071 42.6377 49.231 42.5798 49.0467 42.5117L49.1112 42.4707C49.3103 42.343 49.5319 42.2399 49.7035 42.0827C50.1206 41.7005 50.2938 41.2199 50.2126 40.6488C50.1354 40.1057 49.8644 39.7071 49.3805 39.4485C48.9412 39.2145 48.4675 39.1292 47.9774 39.1296C47.1293 39.1304 46.2808 39.1431 45.4327 39.1448C45.1404 39.1452 44.8481 39.1234 44.5558 39.1193C44.4992 39.1185 44.415 39.1329 44.3908 39.1706C44.3239 39.2732 44.2796 39.3915 44.2319 39.5056C44.2044 39.5721 44.2315 39.6086 44.3075 39.6185C44.5115 39.6464 44.7151 39.6813 44.9195 39.7117C45.202 39.7539 45.3387 39.9009 45.3559 40.1854L45.3596 40.3541C45.36 41.2387 45.3629 42.1234 45.3592 43.008C45.3539 43.8914 45.3456 44.7748 45.3341 45.6582C45.3329 45.7695 45.3177 45.8811 45.3017 45.9915C45.2775 46.1582 45.1884 46.2731 45.0176 46.3093L44.5345 46.4045C44.4774 46.416 44.3949 46.4144 44.3715 46.4497C44.2828 46.5823 44.2114 46.7272 44.2213 46.902L44.2709 46.9156L45.8936 46.9554L46.2192 46.9542C46.7807 46.9476 47.3431 46.9587 47.9039 46.9299C48.511 46.8996 49.0812 46.7194 49.6083 46.4094C50.1694 46.079 50.6013 45.6434 50.7548 44.9883C50.8534 44.57 50.8538 44.1492 50.6867 43.7453ZM46.564 39.9764C46.5665 39.7987 46.6449 39.7215 46.8214 39.717C47.2561 39.7051 47.688 39.7076 48.1075 39.8574C48.6502 40.0511 48.9839 40.5191 48.9778 41.091C48.9749 41.3106 48.9782 41.5281 48.8973 41.7391C48.7376 42.1546 48.4314 42.3738 47.9971 42.4165C47.7705 42.4395 47.5418 42.4419 47.3399 42.4526L46.6658 42.423C46.5763 42.4198 46.5373 42.3803 46.5377 42.2884L46.564 39.9764ZM49.3579 45.5158C49.1407 45.9883 48.745 46.2366 48.2495 46.3228C47.8546 46.3905 47.4498 46.3728 47.0624 46.2707C46.7725 46.1964 46.6543 45.9636 46.5964 45.7054C46.5574 45.5326 46.564 45.3269 46.5607 45.1471C46.5554 44.8696 46.5595 44.2937 46.5595 44.2937H46.5537C46.5537 43.8832 46.555 43.5277 46.5525 43.134C46.5521 43.0491 46.5665 43.0068 46.6703 43.0101C47.039 43.0211 47.4088 43.0273 47.7774 43.0417C48.1071 43.0544 48.4158 43.1521 48.706 43.3085C49.1477 43.5466 49.4137 43.9111 49.4868 44.4119C49.5426 44.7916 49.5188 45.1652 49.3579 45.5158ZM8.88761 45.9583L8.89541 43.7264C8.89664 43.3906 8.85395 43.0614 8.74394 42.7428C8.44057 41.8656 7.60397 41.4662 6.73288 41.781C6.33675 41.9243 5.98166 42.1414 5.64259 42.3877C5.44513 42.5314 5.44513 42.5314 5.30228 42.3266C4.89793 41.7469 4.32035 41.5487 3.64795 41.7625C3.21323 41.9005 2.8331 42.1365 2.47309 42.4107C2.43943 42.4362 2.3717 42.4645 2.35158 42.4493C2.31792 42.4243 2.29452 42.3647 2.29534 42.32L2.31997 41.9235C2.32203 41.8401 2.30602 41.7564 2.29781 41.6689C2.13525 41.7252 2.00553 41.7814 1.86965 41.8143C1.44971 41.9169 1.02689 42.0113 0.60448 42.1078C0.502265 42.1312 0.394303 42.162 0.384451 42.2794C0.374188 42.3947 0.485434 42.414 0.57164 42.4485C0.753082 42.5216 0.933293 42.5991 1.11268 42.678C1.26334 42.7445 1.31958 42.8647 1.31876 43.0265C1.31588 43.7182 1.3204 44.4091 1.31629 45.1007C1.31465 45.3819 1.30151 45.6627 1.28879 45.9439C1.27729 46.1931 1.19232 46.2974 0.950945 46.3602C0.822868 46.3938 0.692739 46.4164 0.563841 46.4468C0.535516 46.4534 0.487076 46.4714 0.486666 46.4854C0.481329 46.6073 0.474761 46.7321 0.495286 46.8507C0.499391 46.8721 0.628289 46.8721 0.699717 46.8803L0.747746 46.8774C1.24528 46.87 1.74281 46.8622 2.24075 46.8569C2.5047 46.854 2.76824 46.8565 3.05477 46.8565L3.08556 46.4583C2.92136 46.4283 2.77481 46.4057 2.63031 46.3741C2.40495 46.3249 2.30889 46.2054 2.30314 45.978L2.29904 45.6525C2.29657 44.8081 2.29329 43.9641 2.29329 43.1197C2.29329 42.9969 2.34419 42.8996 2.45215 42.8262C2.68081 42.6718 2.92218 42.5491 3.18942 42.4805C3.75263 42.3364 4.24113 42.5367 4.45787 43.0158C4.52643 43.1669 4.5802 43.3339 4.59539 43.4981C4.67503 44.3446 4.64055 45.1919 4.59252 46.0383C4.58226 46.221 4.49646 46.313 4.31625 46.3577L3.89261 46.4472C3.85854 46.4558 3.80887 46.4328 3.80641 46.4612C3.79696 46.5781 3.8023 46.7575 3.8023 46.7575H3.90328L5.19308 46.7998C5.54653 46.799 5.90038 46.8417 6.25341 46.8507C6.31663 46.852 6.37287 46.8614 6.37657 46.7883C6.3806 46.6749 6.37909 46.5613 6.37205 46.448L6.30473 46.4361L5.94143 46.3544C5.69636 46.2965 5.6118 46.2034 5.61098 45.9554C5.6081 45.3442 5.61631 44.7333 5.61098 44.1225C5.60783 43.7732 5.59483 43.424 5.57198 43.0753C5.56582 42.9825 5.58019 42.9218 5.65408 42.8697C5.86825 42.7131 6.10919 42.5969 6.36507 42.5269C7.15939 42.3175 7.80963 42.7531 7.85068 43.572C7.89091 44.3618 7.87408 45.1545 7.86792 45.946C7.86587 46.2214 7.77474 46.3048 7.5034 46.3786L7.4098 46.4029C7.13189 46.4694 7.13435 46.4694 7.15077 46.7645C7.15611 46.8569 7.18156 46.8807 7.28008 46.8782C7.84617 46.8655 8.41225 46.8622 8.97833 46.8573C9.20986 46.8552 9.44138 46.8573 9.69343 46.8573L9.74474 46.4731C9.52348 46.4144 9.31946 46.3708 9.12242 46.3064C8.94837 46.2473 8.88679 46.1422 8.88761 45.9583ZM28.382 42.5753C28.6152 42.359 28.6168 42.0733 28.5515 41.756C28.3668 41.9493 28.1599 42.0384 27.9239 42.0552C27.6074 42.0778 27.2966 42.0503 27.0019 41.9243C26.2047 41.5819 25.4198 41.6061 24.6374 41.9817C23.9794 42.297 23.5746 42.7884 23.534 43.5334C23.5081 44.0109 23.5976 44.4628 23.9161 44.8425C24.107 45.07 24.3521 45.2173 24.6284 45.3191C24.7474 45.3631 24.7564 45.4197 24.6567 45.4957C24.583 45.5513 24.5067 45.6033 24.428 45.6516C24.2613 45.7565 24.0935 45.8596 23.9248 45.9612C23.8258 46.0211 23.7922 46.0974 23.8246 46.2144C23.9194 46.5584 24.1637 46.7571 24.4691 46.902L24.5803 46.9796L24.483 47.0769C24.1838 47.3195 23.8726 47.5486 23.5861 47.806C23.3455 48.0223 23.2679 48.3121 23.3406 48.6319C23.4872 49.2702 23.9104 49.6651 24.511 49.8466C25.5606 50.1643 26.5462 49.982 27.4448 49.3601C27.9776 48.9911 28.3598 48.5108 28.476 47.8499C28.6061 47.1073 28.1936 46.4628 27.4551 46.3298C26.9666 46.2411 26.4666 46.2157 25.9723 46.159C25.7416 46.1328 25.5077 46.1172 25.2831 46.0642C25.0922 46.019 24.9974 45.8635 25.0151 45.7116C25.0327 45.5622 25.1916 45.423 25.3734 45.4086C25.7396 45.3791 26.0984 45.322 26.4358 45.1677C27.3299 44.7588 27.7449 44.0429 27.641 43.079C27.6275 42.9493 27.5979 42.8212 27.5713 42.6702C27.8574 42.7182 28.1501 42.7908 28.382 42.5753ZM25.669 47.0978C26.0327 47.1085 26.4465 47.1311 26.8463 47.2481C27.1981 47.3507 27.4875 47.5305 27.5729 47.9234C27.6759 48.3979 27.4477 48.87 26.9883 49.1237C26.5581 49.3609 26.091 49.3807 25.6173 49.3318C25.2117 49.2899 24.8467 49.1495 24.5545 48.8499C24.1694 48.4554 24.1674 47.9094 24.5528 47.5161C24.8972 47.1648 25.0816 47.0921 25.669 47.0978ZM26.5791 44.2399C26.3672 44.9177 25.7507 45.0113 25.2675 44.7945C24.8558 44.6102 24.6764 44.2473 24.5824 43.8331C24.5458 43.6738 24.5372 43.5084 24.5159 43.3454C24.5245 43.1119 24.5631 42.8877 24.6637 42.6775C24.9719 42.0302 25.7293 42.0688 26.1485 42.3619C26.3283 42.4875 26.4535 42.6583 26.5319 42.8606C26.7064 43.3012 26.7231 43.7885 26.5791 44.2399ZM22.7327 46.4004C22.586 46.378 22.441 46.3456 22.2988 46.3035C22.0492 46.2272 22.0188 46.1804 22.0159 45.9164C22.0085 45.1808 22.0036 44.4452 21.9954 43.71C21.9913 43.3791 21.9519 43.0527 21.8505 42.7367C21.5837 41.9033 20.7663 41.4559 19.9486 41.7018C19.4954 41.8385 19.1063 42.0926 18.7438 42.391L18.6116 42.4924L18.612 42.3565C18.6206 42.2001 18.6375 42.0437 18.6362 41.8873C18.6354 41.8056 18.6042 41.7235 18.589 41.6517C18.2799 41.7449 18.0028 41.8385 17.72 41.9099C17.4363 41.9813 17.1469 42.0298 16.86 42.0881C16.7176 42.1168 16.6129 42.203 16.6153 42.3011C16.619 42.4395 16.7336 42.4661 16.8337 42.5076C17.0152 42.5819 17.1962 42.657 17.3756 42.7367C17.5037 42.7937 17.5558 42.8996 17.5546 43.0371C17.5455 43.9932 17.5398 44.9497 17.5258 45.9062C17.5217 46.2083 17.4454 46.2879 17.1482 46.3544L17.0184 46.3803C16.7434 46.4275 16.7356 46.4386 16.7545 46.7288L16.7561 46.7768C16.7529 46.8885 16.8017 46.9246 16.9166 46.9234C17.6473 46.9148 18.3784 46.9107 19.1091 46.9135C19.4224 46.9148 19.456 46.8901 19.4494 46.5683L19.4347 46.43C19.2557 46.4 19.0845 46.3782 18.917 46.3413C18.7417 46.3023 18.6789 46.2304 18.6625 46.0523C18.6473 45.8893 18.6424 45.7239 18.6408 45.5597C18.6325 44.8081 18.626 44.0564 18.6223 43.3052C18.6215 43.116 18.6564 42.9403 18.8304 42.8183C19.0866 42.6353 19.3886 42.527 19.7027 42.5055C20.3546 42.4608 20.8501 42.8471 20.8854 43.4969C20.9289 44.2986 20.9158 45.1032 20.926 45.9066C20.9269 45.9665 20.9162 46.0268 20.908 46.0864C20.8924 46.2038 20.8349 46.292 20.7159 46.3224C20.5997 46.3528 20.4819 46.3799 20.3632 46.3979C20.1863 46.4242 20.1826 46.423 20.1691 46.6015L20.1736 46.7218C20.1945 46.9295 20.1949 46.9234 20.4051 46.9213C21.112 46.9156 21.8185 46.9119 22.5249 46.9127C22.8205 46.9135 22.8414 46.8996 22.8439 46.595L22.8431 46.5227C22.8476 46.4447 22.8127 46.4131 22.7327 46.4004ZM32.6061 41.7523C31.8651 41.5712 31.1623 41.7059 30.4949 42.0511C29.8463 42.3865 29.4128 42.905 29.2477 43.6209C29.0811 44.3446 29.1607 45.0507 29.4805 45.7227C29.6886 46.159 30.0088 46.4965 30.4448 46.7157C31.4653 47.2296 32.7136 46.9964 33.5141 46.3089C34.1459 45.7666 34.3778 45.0445 34.3918 44.1508C34.3831 44.0614 34.3745 43.8889 34.3507 43.7182C34.2165 42.7453 33.5428 41.9813 32.6061 41.7523ZM33.1672 45.5104C32.9706 46.2846 32.3011 46.6286 31.5457 46.3626C31.1603 46.2272 30.8721 45.9681 30.6783 45.618C30.2325 44.8134 30.1468 43.9579 30.4004 43.0802C30.5696 42.4957 31.0507 42.1759 31.6229 42.2161C32.1344 42.2519 32.5277 42.4973 32.8163 42.9136C33.1204 43.3528 33.2378 43.8524 33.269 44.377C33.2744 44.4612 33.2699 44.5453 33.2699 44.6299L33.306 44.634C33.2608 44.9267 33.2395 45.2251 33.1672 45.5104ZM13.9705 41.7395C13.1909 41.5614 12.4606 41.7375 11.7841 42.1336C11.1992 42.476 10.8211 42.9875 10.6762 43.6558C10.5403 44.2802 10.5957 44.8939 10.817 45.492C10.9516 45.8565 11.1556 46.1771 11.4549 46.4271C12.085 46.9529 12.8215 47.0859 13.6051 46.9394C14.2685 46.815 14.8514 46.5203 15.275 45.969C15.6716 45.4534 15.8227 44.8614 15.8383 44.2198C15.8149 44.0166 15.8091 43.8097 15.766 43.6114C15.5517 42.6217 14.9729 41.9682 13.9705 41.7395ZM14.6063 45.508C14.4163 46.2781 13.7361 46.6307 12.9861 46.3647C12.5046 46.1935 12.1909 45.8409 11.9927 45.3889C11.6749 44.6627 11.6101 43.907 11.8157 43.141C11.9734 42.5552 12.4483 42.1238 13.1753 42.2272C13.6215 42.2904 13.9696 42.5183 14.2291 42.8807C14.5796 43.3697 14.695 43.9296 14.711 44.5178V44.6381L14.7406 44.6426C14.6975 44.9316 14.6761 45.2255 14.6063 45.508Z" fill="#F8F8F8"/>
</svg>
