<svg width="74" height="50" viewBox="0 0 74 50" fill="none" xmlns="http://www.w3.org/2000/svg">
<path d="M50.4422 5.06209C50.0893 5.06209 49.85 5.10505 49.6015 5.16334V5.20322H49.6445C49.8101 5.5223 50.0924 5.75548 50.301 6.04081C50.4667 6.36909 50.6078 6.69737 50.7735 7.02258L50.8165 6.97656C51.1049 6.77407 51.246 6.44886 51.246 5.9549C51.1233 5.8107 51.1049 5.6665 51.0005 5.52537C50.8778 5.31981 50.614 5.21856 50.4483 5.05596L50.4422 5.06209ZM17.8133 45.5421H14.9692C14.8892 41.0222 14.6129 36.5079 14.1408 32.0119H14.1163L9.79033 45.5421H7.62735L3.33206 32.0119H3.30138C2.96541 36.5149 2.76589 41.027 2.70311 45.5421H0.110596C0.279339 39.5103 0.699664 33.8528 1.3685 28.5757H4.89677L8.99264 41.0443H9.01718L13.1499 28.5757H16.5094C17.2519 34.7579 17.6875 40.4184 17.8225 45.5421H17.8133ZM30.1377 33.0244C28.978 39.2986 27.4501 43.8639 25.5602 46.708C24.0814 48.9047 22.4614 50 20.7034 50C20.234 50 19.6603 49.8589 18.9669 49.5766V48.061C19.3044 48.1131 19.7032 48.1408 20.1512 48.1408C20.9734 48.1408 21.6331 47.9106 22.1362 47.4596C22.7406 46.9074 23.0413 46.2876 23.0413 45.6035C23.0413 45.1279 22.8051 44.1615 22.3356 42.7072L19.2246 33.0244H22.0166L24.247 40.265C24.7502 41.9095 24.9619 43.057 24.876 43.7105C26.1032 40.4461 26.9561 36.8779 27.4378 33.0244H30.1377ZM67.9516 45.5421H59.8826V28.5757H62.5978V43.4558H67.9516V45.5421ZM57.7656 45.9563L54.6485 44.4223C54.9246 44.1891 55.1915 43.9375 55.4308 43.6552C56.7593 42.1028 57.4189 39.7956 57.4189 36.7429C57.4189 31.1283 55.2161 28.318 50.8073 28.318C48.6473 28.318 46.9599 29.0298 45.7449 30.4564C44.4257 32.015 43.763 34.3099 43.763 37.3442C43.763 40.3264 44.3459 42.517 45.5241 43.9099C46.5979 45.1678 48.2147 45.7968 50.3808 45.7968C51.1908 45.7968 51.9332 45.6955 52.6051 45.4961L56.6703 47.8646L57.7748 45.9563H57.7656ZM47.6656 42.1458C46.9752 41.0413 46.6316 39.2618 46.6316 36.8196C46.6316 32.5458 47.9325 30.4074 50.5281 30.4074C51.8872 30.4074 52.8905 30.9197 53.5256 31.9414C54.2128 33.052 54.5564 34.8131 54.5564 37.2277C54.5564 41.5352 53.2556 43.6951 50.66 43.6951C49.2947 43.6951 48.2976 43.1828 47.6594 42.1611L47.6656 42.1458ZM42.5787 40.8418C42.5787 42.2838 42.051 43.4681 40.9956 44.3885C39.9402 45.3089 38.5319 45.7691 36.7494 45.7691C35.0834 45.7691 33.485 45.2414 31.9233 44.1891L32.6505 42.7287C33.9943 43.4037 35.2062 43.735 36.3015 43.735C37.3201 43.735 38.1208 43.511 38.7037 43.06C38.9951 42.8404 39.2304 42.555 39.3903 42.227C39.5503 41.8991 39.6304 41.538 39.6242 41.1732C39.6242 40.1607 38.9185 39.3017 37.6361 38.5807C36.4457 37.9272 34.0679 36.565 34.0679 36.565C32.7732 35.6231 32.1289 34.6137 32.1289 32.9538C32.1289 31.5732 32.6106 30.4687 33.5709 29.625C34.5373 28.7721 35.7799 28.3518 37.3139 28.3518C38.8848 28.3518 40.3206 28.769 41.6092 29.6097L40.9557 31.0701C39.9261 30.6178 38.8158 30.3778 37.6913 30.3644C36.823 30.3644 36.1511 30.573 35.6848 30.9964C35.4481 31.1925 35.2573 31.438 35.1259 31.7158C34.9944 31.9936 34.9255 32.2968 34.9239 32.6041C34.9239 33.6104 35.6418 34.4756 36.9672 35.2119C38.173 35.8716 40.609 37.2675 40.609 37.2675C41.9375 38.2033 42.5971 39.2004 42.5971 40.851L42.5787 40.8418ZM71.3633 22.8875C69.7219 22.8446 68.4486 23.0103 67.384 23.4643C67.0772 23.5871 66.5863 23.5871 66.5433 23.9767C66.7121 24.1393 66.7366 24.4062 66.8808 24.6333C67.1263 25.0444 67.5497 25.5936 67.9424 25.882C68.3719 26.2194 68.8014 26.5447 69.2524 26.8331C70.0501 27.324 70.9552 27.6154 71.7376 28.1094C72.1824 28.3978 72.6365 28.7629 73.0875 29.0697C73.3115 29.2231 73.4557 29.4992 73.7441 29.5974V29.536C73.603 29.3519 73.56 29.085 73.4219 28.8795C73.2164 28.6739 73.0108 28.4898 72.8083 28.2873C72.206 27.4935 71.4871 26.7953 70.676 26.2164C70.0195 25.7684 68.5836 25.1426 68.3136 24.3909L68.2737 24.3479C68.7217 24.308 69.2555 24.1454 69.685 24.0227C70.3815 23.8386 71.0196 23.8785 71.7406 23.6975C72.0659 23.6147 72.3941 23.5134 72.7224 23.4091V23.225C72.3543 22.8569 72.0781 22.3568 71.6977 22.0131C70.6358 21.0849 69.5033 20.2407 68.3105 19.4881C67.6663 19.077 66.8501 18.8131 66.1721 18.4634C65.9267 18.3407 65.5155 18.2793 65.3744 18.0737C65.0062 17.6258 64.7915 17.0306 64.5307 16.4968C63.9282 15.3281 63.3685 14.1379 62.8525 12.9286C62.4843 12.1248 62.2603 11.324 61.8093 10.5877C59.6924 7.09929 57.4005 4.98539 53.8753 2.91752C53.1175 2.48799 52.2094 2.30391 51.2491 2.07687C50.7367 2.05232 50.2243 2.01551 49.715 1.99403C49.3775 1.84983 49.0523 1.46019 48.7639 1.27304C47.5981 0.536701 44.5791 -1.05869 43.72 1.05214C43.1678 2.38367 44.5392 3.69681 45.0148 4.37178C45.3676 4.84119 45.8124 5.3781 46.0579 5.90581C46.2021 6.26171 46.242 6.62681 46.3862 6.99804C46.7114 7.90005 47.0213 8.90637 47.4508 9.75009C47.6748 10.1796 47.9202 10.6306 48.2086 11.0172C48.3743 11.2412 48.6565 11.3455 48.721 11.7137C48.4326 12.1309 48.4142 12.7384 48.2485 13.2477C47.5122 15.5702 47.8006 18.4419 48.8437 20.1508C49.172 20.6601 49.9543 21.7892 51.0005 21.3566C51.921 20.9884 51.7185 19.8225 51.9823 18.7947C52.0437 18.5493 52.0038 18.3867 52.1296 18.221V18.267C52.418 18.8438 52.7064 19.393 52.9702 19.9698C53.6023 20.9761 54.7068 22.0193 55.6302 22.7157C56.1211 23.0839 56.5108 23.722 57.1244 23.9491V23.8877H57.0784C56.9464 23.7098 56.7716 23.6239 56.6059 23.4797C56.2169 23.0989 55.8579 22.6886 55.5321 22.2524C54.6676 21.0713 53.9011 19.8215 53.2402 18.5155C52.9027 17.8713 52.6205 17.1779 52.3505 16.5428C52.2278 16.2973 52.2278 15.9292 52.0222 15.8064C51.7154 16.2544 51.2644 16.644 51.0404 17.1963C50.6508 18.0799 50.6109 19.166 50.4636 20.295C50.3808 20.3165 50.4207 20.295 50.3808 20.338C49.7242 20.1784 49.5003 19.4973 49.2548 18.9267C48.6412 17.4693 48.54 15.1284 49.0707 13.4502C49.2149 13.0206 49.8285 11.6646 49.5831 11.2534C49.4542 10.8638 49.0493 10.6398 48.8253 10.3238C48.5372 9.91252 48.2905 9.47369 48.0889 9.01376C47.5981 7.8663 47.3526 6.59612 46.8188 5.44867C46.5733 4.91789 46.1438 4.36257 45.794 3.87475C45.4044 3.3225 44.9749 2.93286 44.665 2.27936C44.5637 2.05539 44.4195 1.68416 44.5822 1.43871C44.6251 1.27304 44.711 1.20861 44.8706 1.16259C45.1405 0.941686 45.8984 1.23008 46.1653 1.35281C46.9231 1.65961 47.5612 1.94801 48.1963 2.37754C48.4847 2.58003 48.7946 2.96968 49.1628 3.07092H49.5923C50.2489 3.21512 50.9883 3.11387 51.6019 3.29489C52.691 3.64465 53.6728 4.15395 54.5534 4.7062C57.2666 6.43939 59.4734 8.85898 60.9503 11.7198C61.1957 12.1923 61.3031 12.6249 61.5271 13.1158C61.9566 14.1282 62.4874 15.1499 62.923 16.1286C63.3526 17.095 63.7667 18.0799 64.3834 18.8806C64.6902 19.3102 65.9236 19.5341 66.4758 19.7581C66.8839 19.9422 67.519 20.1109 67.8872 20.3349C68.5928 20.7644 69.2801 21.2553 69.9428 21.7278C70.2802 21.961 71.3019 22.4733 71.3633 22.8875Z" fill="#F8F8F8"/>
</svg>
