<svg width="79" height="50" viewBox="0 0 79 50" fill="none" xmlns="http://www.w3.org/2000/svg">
<path d="M54.1185 0C53.9164 0 53.7225 0.0803059 53.5795 0.223252C53.4366 0.366199 53.3563 0.560077 53.3563 0.762233V14.7289L50.1905 12.8817C49.9951 12.7662 49.7722 12.7052 49.5451 12.7052C49.3181 12.7052 49.0952 12.7662 48.8998 12.8817L41.2927 17.3179C41.0982 17.4302 40.9367 17.5917 40.8243 17.7861C40.7119 17.9806 40.6526 18.2011 40.6524 18.4257V27.3083C40.6524 27.7656 40.8963 28.1874 41.2927 28.416L48.8998 32.8522C49.0952 32.9678 49.3181 33.0288 49.5451 33.0288C49.7722 33.0288 49.9951 32.9678 50.1905 32.8522L57.7976 28.416C57.9921 28.3037 58.1536 28.1423 58.266 27.9478C58.3784 27.7534 58.4376 27.5328 58.4378 27.3083V3.12515C58.4372 2.90357 58.3788 2.68599 58.2682 2.49392C58.1577 2.30186 57.999 2.14198 57.8077 2.03008L54.4971 0.104172C54.3832 0.0368577 54.2534 0.000916092 54.1211 0H54.1185ZM29.2189 12.709C28.9923 12.7087 28.7697 12.7683 28.5736 12.8817L20.9665 17.3179C20.772 17.4302 20.6105 17.5917 20.4981 17.7861C20.3857 17.9806 20.3264 18.2011 20.3262 18.4257V27.3083C20.3262 27.7656 20.5701 28.1874 20.9665 28.416L28.5736 32.8522C28.9725 33.0809 29.4628 33.0809 29.8643 32.8522L37.4714 28.416C37.6659 28.3037 37.8274 28.1423 37.9398 27.9478C38.0522 27.7534 38.1114 27.5328 38.1116 27.3083V18.4257C38.1119 18.201 38.0529 17.9803 37.9405 17.7857C37.828 17.5912 37.6662 17.4298 37.4714 17.3179L29.8643 12.8817C29.6681 12.7683 29.4455 12.7087 29.2189 12.709ZM69.8713 12.709C69.6446 12.7078 69.4218 12.7675 69.226 12.8817L61.6189 17.3179C61.4244 17.4302 61.2629 17.5917 61.1505 17.7861C61.0381 17.9806 60.9788 18.2011 60.9786 18.4257V27.3083C60.9786 27.7656 61.2225 28.1874 61.6189 28.416L68.9973 32.8751C69.1923 32.9934 69.4157 33.0569 69.6438 33.0587C69.8719 33.0604 70.0963 33.0005 70.2931 32.8853L73.9213 30.7764C74.0067 30.7261 74.0774 30.6545 74.1266 30.5685C74.1757 30.4825 74.2016 30.3851 74.2016 30.2861C74.2016 30.187 74.1757 30.0896 74.1266 30.0036C74.0774 29.9176 74.0067 29.846 73.9213 29.7957L66.0602 25.1638V20.6057L69.8713 18.3876L73.6825 20.6057V23.7817C73.6825 24.206 74.0382 24.272 74.277 24.1297C75.5615 23.3798 76.8471 22.632 78.1339 21.8862C78.3254 21.7745 78.4842 21.6147 78.5948 21.4226C78.7053 21.2305 78.7637 21.0128 78.7641 20.7912V18.4282C78.7644 18.2036 78.7053 17.9828 78.5929 17.7883C78.4804 17.5937 78.3186 17.4324 78.1238 17.3205L70.5167 12.8843C70.3207 12.7704 70.098 12.7107 69.8713 12.7115V12.709ZM8.89272 12.714C8.66602 12.7129 8.44316 12.7726 8.24736 12.8868L0.640276 17.3179C0.445558 17.4312 0.283962 17.5936 0.171613 17.7889C0.059264 17.9842 9.12945e-05 18.2055 0 18.4308V29.7703C0 30.3242 0.599623 30.6672 1.07729 30.3902L4.45144 28.4262C4.64307 28.3141 4.80204 28.1538 4.91258 27.9613C5.02311 27.7687 5.08136 27.5506 5.08155 27.3286V20.6133L8.89272 18.3901L12.7039 20.6133V27.3286C12.7043 27.5502 12.7626 27.7679 12.8732 27.96C12.9837 28.1521 13.1426 28.312 13.334 28.4237L16.7081 30.3902C16.8171 30.4537 16.9409 30.4873 17.067 30.4877C17.1931 30.488 17.317 30.4551 17.4263 30.3922C17.5356 30.3293 17.6264 30.2387 17.6894 30.1295C17.7525 30.0203 17.7856 29.8964 17.7854 29.7703V18.4308C17.7853 18.2055 17.7262 17.9842 17.6138 17.7889C17.5015 17.5936 17.3399 17.4312 17.1452 17.3179L9.53807 12.8868C9.34227 12.7726 9.11941 12.7129 8.89272 12.714ZM49.5451 18.3851L53.3563 20.6082V25.1257L49.5451 27.3489L45.734 25.1257V20.6057L49.5451 18.3825V18.3851ZM69.8713 20.3364L67.6939 21.6068V24.1425L69.8713 25.4078L72.0488 24.1425V21.6068L69.8713 20.3364ZM39.1432 30.4842C38.8793 30.4827 38.6194 30.5492 38.3886 30.6773L31.2439 34.8086C31.014 34.939 30.8229 35.1282 30.6903 35.3568C30.5577 35.5854 30.4883 35.8452 30.4893 36.1095V44.3569C30.4893 44.8879 30.7866 45.3884 31.2439 45.6577L33.1241 46.73C34.0261 47.1746 34.3589 47.1746 34.768 47.1746C36.1146 47.1746 36.8819 46.3692 36.8819 44.9463V36.7981C36.8826 36.7703 36.8777 36.7426 36.8675 36.7168C36.8574 36.6909 36.8421 36.6673 36.8227 36.6474C36.8033 36.6276 36.7801 36.6118 36.7545 36.601C36.7289 36.5902 36.7014 36.5846 36.6736 36.5846H35.769C35.7124 36.5846 35.6582 36.6071 35.6181 36.6471C35.5781 36.6872 35.5556 36.7415 35.5556 36.7981V44.9463C35.5556 45.5637 34.9026 46.1989 33.8381 45.6679L31.8817 44.5398C31.8497 44.5197 31.8233 44.492 31.8047 44.4592C31.7861 44.4264 31.7758 44.3895 31.7749 44.3518V36.1044C31.7749 36.0307 31.8105 35.9444 31.8842 35.9062L39.0289 31.7876C39.0631 31.7687 39.1016 31.7588 39.1407 31.7588C39.1798 31.7588 39.2182 31.7687 39.2524 31.7876L46.4047 35.9037C46.4784 35.9444 46.514 36.018 46.514 36.1044V44.3518C46.5138 44.3913 46.5037 44.4302 46.4846 44.4648C46.4655 44.4994 46.4381 44.5287 46.4047 44.55L39.2524 48.6838C39.2182 48.7027 39.1798 48.7126 39.1407 48.7126C39.1016 48.7126 39.0631 48.7027 39.0289 48.6838L37.2046 47.5964C37.1538 47.5709 37.0775 47.5582 37.0293 47.5837C36.6949 47.798 36.3323 47.9648 35.952 48.0791C35.8275 48.1172 35.6598 48.1934 36.018 48.3916L38.3886 49.8018C38.6204 49.9279 38.8793 49.9959 39.1432 49.9999C39.4061 50.0026 39.6643 49.9303 39.8876 49.7916L47.0348 45.6577C47.2648 45.5274 47.4558 45.3382 47.5885 45.1096C47.7211 44.881 47.7905 44.6212 47.7895 44.3569V36.1095C47.7861 35.8461 47.7149 35.588 47.5827 35.3601C47.4506 35.1322 47.2619 34.9423 47.0348 34.8086L39.8876 30.6799C39.6608 30.5512 39.404 30.4846 39.1432 30.4868V30.4842ZM50.2896 34.2903C50.1094 34.2906 49.9311 34.3265 49.7647 34.3957C49.5984 34.465 49.4473 34.5663 49.3202 34.694C49.0633 34.9517 48.9194 35.301 48.9201 35.6649C48.9208 36.0288 49.066 36.3775 49.3238 36.6343C49.5815 36.8911 49.9308 37.035 50.2947 37.0344C50.6585 37.0337 51.0073 36.8885 51.2641 36.6307C51.5209 36.3729 51.6648 36.0237 51.6641 35.6598C51.6635 35.2959 51.5183 34.9472 51.2605 34.6904C51.0027 34.4335 50.6535 34.2896 50.2896 34.2903ZM50.2743 34.5088C50.9197 34.5088 51.4431 35.017 51.4431 35.6598C51.4385 35.9683 51.3139 36.263 51.0957 36.4811C50.8775 36.6993 50.5829 36.824 50.2743 36.8286C49.9675 36.8252 49.6745 36.7003 49.4597 36.4811C49.2449 36.262 49.1257 35.9666 49.1284 35.6598C49.1274 35.5088 49.1564 35.3591 49.2135 35.2193C49.2707 35.0796 49.355 34.9525 49.4615 34.8455C49.5681 34.7385 49.6947 34.6536 49.8342 34.5958C49.9738 34.5381 50.1233 34.5085 50.2743 34.5088ZM49.7738 34.8823V36.4246H50.066V35.8097H50.3404C50.4522 35.8097 50.4776 35.8554 50.503 35.9418C50.503 35.9545 50.5487 36.356 50.5614 36.4296H50.879C50.8387 36.2957 50.814 36.1576 50.8054 36.018C50.7698 35.8199 50.7596 35.6827 50.5487 35.67C50.6605 35.6318 50.846 35.5734 50.846 35.2888C50.846 34.8798 50.4903 34.8823 50.3048 34.8823H49.7738ZM50.066 35.1288H50.315C50.3912 35.1288 50.5386 35.1288 50.5386 35.3371C50.5386 35.4235 50.5005 35.5658 50.2997 35.5607H50.066V35.1288ZM41.0589 36.389C39.0187 36.389 37.8067 37.2605 37.8067 38.6935C37.8067 40.2637 39.0212 40.6829 40.9751 40.8785C43.3126 41.1148 43.4955 41.4502 43.4955 41.9076C43.4955 42.7104 42.8502 43.0433 41.341 43.0433C39.4481 43.0433 39.0339 42.5758 38.8967 41.6357C38.884 41.5341 38.7951 41.4604 38.6833 41.4604H37.7534C37.7256 41.4604 37.6981 41.4659 37.6725 41.4767C37.6469 41.4875 37.6237 41.5033 37.6042 41.5232C37.5848 41.5431 37.5696 41.5666 37.5594 41.5925C37.5493 41.6184 37.5444 41.646 37.545 41.6738C37.545 42.8731 38.2006 44.3086 41.3283 44.3086C43.6226 44.3086 44.9209 43.4193 44.9209 41.8593C44.9209 40.3145 43.8792 39.9029 41.6789 39.6056C39.4532 39.3083 39.2321 39.1584 39.2321 38.6376C39.2321 38.2057 39.4151 37.6391 41.0615 37.6391C42.53 37.6391 43.0789 37.9617 43.3024 38.9501C43.3279 39.0517 43.3965 39.1102 43.4955 39.1102H44.4229C44.4839 39.1102 44.5373 39.0848 44.5728 39.0492C44.6109 39.0009 44.6338 38.9526 44.6236 38.8917C44.4763 37.1843 43.3482 36.389 41.0589 36.389Z" fill="#F8F8F8"/>
</svg>
