<svg width="53" height="50" viewBox="0 0 53 50" fill="none" xmlns="http://www.w3.org/2000/svg">
<path d="M21.8511 17.3512C21.0605 17.0306 20.2058 16.9024 19.3297 16.9238C18.7741 16.9238 18.2826 16.9238 17.8766 16.9452C17.4492 16.9238 17.1501 16.9452 17.0005 16.9665V24.1463C17.2997 24.1677 17.5774 24.1891 17.8339 24.1891H18.9664C19.7998 24.1891 20.6331 24.0609 21.4238 23.8044C22.1076 23.6121 22.7059 23.2061 23.176 22.6719C23.6247 22.1377 23.8384 21.4112 23.8384 20.471C23.8598 19.8085 23.6888 19.1461 23.3469 18.5692C22.9906 18.0144 22.4666 17.5877 21.8511 17.3512ZM43.0059 0H9.88481C4.86323 0 0.803223 4.06 0.803223 9.08158V40.9184C0.803223 45.94 4.86323 50 9.88481 50H43.0059C48.0275 50 52.0875 45.94 52.0875 40.9184V9.08158C52.0875 4.06 48.0275 0 43.0059 0ZM27.2125 24.8942C26.3599 26.0909 25.1632 26.9883 23.7743 27.5012C22.3212 28.0354 20.7186 28.2277 18.9664 28.2277C18.4535 28.2277 18.1117 28.2277 17.898 28.2063C17.6843 28.185 17.3851 28.185 16.9791 28.185V35.0421C17.0005 35.1917 16.8937 35.322 16.7441 35.3434H12.5986C12.4277 35.3434 12.3422 35.2558 12.3422 35.0635V13.0775C12.3422 12.9279 12.4063 12.8424 12.5559 12.8424C12.9191 12.8424 13.261 12.8424 13.7525 12.8211C14.2653 12.7997 14.7995 12.7997 15.3765 12.7783C15.9534 12.757 16.5731 12.757 17.2355 12.7356C17.898 12.7142 18.539 12.7142 19.1801 12.7142C20.9323 12.7142 22.3853 12.9279 23.582 13.3766C24.6504 13.7399 25.6333 14.3382 26.4453 15.1289C27.1291 15.8126 27.6633 16.646 28.0052 17.5649C28.3236 18.4623 28.4946 19.3812 28.4946 20.3427C28.4967 22.1804 28.0693 23.6976 27.2125 24.8942ZM42.3648 33.2065C41.7665 34.0613 40.931 34.7216 39.9716 35.1105C38.9245 35.5571 37.6424 35.79 36.1017 35.79C35.1209 35.79 34.1572 35.7067 33.1978 35.5143C32.4499 35.384 31.702 35.1511 31.0182 34.8306C30.8686 34.7472 30.7596 34.5976 30.781 34.4267V30.7086C30.781 30.6466 30.8045 30.559 30.8686 30.5163C30.9306 30.4735 30.9968 30.4949 31.0609 30.5376C31.8943 31.0291 32.7704 31.3731 33.7106 31.5847C34.5205 31.7984 35.3752 31.9052 36.2321 31.9052C37.0441 31.9052 37.621 31.7962 38.0057 31.6039C38.3476 31.4543 38.5826 31.0911 38.5826 30.7064C38.5826 30.4051 38.4117 30.1295 38.0698 29.8517C37.7279 29.5761 37.0249 29.2555 35.9778 28.8452C34.888 28.4606 33.8858 27.9478 32.9435 27.3089C32.2748 26.83 31.7197 26.2099 31.3173 25.4925C30.9777 24.8165 30.8097 24.0672 30.828 23.3108C30.828 22.392 31.0844 21.5159 31.5567 20.7252C32.0909 19.8705 32.8794 19.1867 33.7982 18.7593C34.8004 18.2486 36.0611 18.0136 37.5783 18.0136C38.4544 18.0136 39.3519 18.0777 40.228 18.2059C40.869 18.2914 41.4887 18.4623 42.0657 18.6974C42.149 18.7187 42.2366 18.8042 42.2794 18.8897C42.3007 18.9752 42.3221 19.0606 42.3221 19.1461V22.6292C42.3221 22.7146 42.2794 22.8001 42.2152 22.8429C42.0229 22.8856 41.9161 22.8856 41.8306 22.8429C41.1896 22.501 40.5058 22.2659 39.7792 22.1163C38.9886 21.9454 38.198 21.8385 37.386 21.8385C36.9586 21.8172 36.5099 21.8813 36.1017 21.9881C35.8261 22.0522 35.5889 22.2018 35.4393 22.4155C35.3325 22.5864 35.2684 22.8001 35.2684 22.9924C35.2684 23.1848 35.3538 23.3771 35.4842 23.548C35.6765 23.7831 35.9308 23.9754 36.2107 24.125C36.7001 24.3814 37.215 24.6164 37.7257 24.8301C38.8818 25.2148 39.9929 25.749 41.0186 26.39C41.7238 26.8366 42.3007 27.4371 42.7046 28.1636C43.0465 28.8431 43.2174 29.5953 43.1961 30.3624C43.2196 31.3689 42.9204 32.371 42.3648 33.2065Z" fill="#F8F8F8"/>
</svg>
