<svg width="68" height="50" viewBox="0 0 68 50" fill="none" xmlns="http://www.w3.org/2000/svg">
<path d="M58.11 28.7428L58.3851 28.7386C60.1226 28.7386 61.7665 29.1428 63.2249 29.8636L63.1603 29.8345C64.4577 30.4612 65.5656 31.421 66.3708 32.6158L66.3896 32.645C67.0904 33.6734 67.4371 34.9021 67.3771 36.1452V36.1327C67.3477 36.707 67.2039 37.2697 66.9542 37.7877C66.7045 38.3057 66.3538 38.7687 65.9229 39.1495L65.9187 39.1536C65.4536 39.6104 64.8959 39.9621 64.2832 40.1849L64.252 40.1953C63.9047 40.2648 63.7138 40.2127 63.679 40.0391C63.6443 39.8655 63.8006 39.6745 64.1478 39.4662C65.0895 38.8953 65.7708 37.9744 66.0187 36.8889L66.025 36.8619C66.0789 36.1384 65.9349 35.4138 65.6083 34.7659L65.6187 34.7889C65.1815 33.8676 64.5052 33.0805 63.6603 32.5096L63.6395 32.4971C62.3338 31.6639 60.8436 31.1638 59.2997 31.0408L59.2663 31.0387C57.0552 30.7241 54.8003 30.9861 52.7202 31.7991L52.8077 31.7679C53.1098 32.4742 53.2994 33.293 53.3265 34.1513V34.1617C53.3113 34.998 53.0846 35.8169 52.6675 36.5419C52.2503 37.2669 51.6564 37.8744 50.941 38.3078L50.9181 38.3203C50.2722 38.7786 49.5347 39.1807 48.7492 39.4932L48.6763 39.5182C48.1065 39.7926 47.4763 39.9174 46.845 39.8808H46.8554C45.5373 39.6044 45.2247 38.4585 45.9178 36.4431C46.2199 35.566 46.6429 34.8055 47.1783 34.1367L47.1658 34.1513C47.8513 33.2555 48.6034 32.47 49.4347 31.7741L49.4576 31.7554L49.2534 31.4512C48.8488 30.7521 48.5098 30.017 48.2408 29.2553L48.2117 29.1594C48.0033 28.465 47.8297 27.8059 47.6908 27.1823L47.5867 26.4531L46.5449 28.4302C45.6421 30.097 44.774 31.5547 43.9407 32.8034L43.6281 33.3242C43.9782 34.1742 44.2365 35.1597 44.3532 36.1889L44.3573 36.241C44.415 37.0444 44.2647 37.849 43.921 38.5774C43.5772 39.3058 43.0516 39.9334 42.3948 40.3995L42.3802 40.4099C41.7485 40.7956 41.0946 41.1434 40.4217 41.4517L40.2967 41.5037C39.5101 41.8402 38.6699 42.0342 37.8154 42.0767H37.7966C37.2159 42.117 36.6345 42.0065 36.1091 41.7558L36.1299 41.7642C35.9235 41.5887 35.7811 41.3498 35.7249 41.0848C35.6687 40.8198 35.702 40.5436 35.8195 40.2995L35.8153 40.3079C36.6487 39.1391 37.4695 38.1223 38.3425 37.1515L38.3154 37.1827L40.6072 34.268L40.1926 33.3305C39.8327 32.6616 39.5288 31.964 39.2842 31.2449L39.255 31.1449C39.0467 30.4505 38.8731 29.7914 38.7342 29.1678L38.63 28.4386L37.5883 30.9387C36.7563 32.8818 35.9924 34.5479 35.2965 35.9368C34.259 38.0203 33.3909 39.6175 32.6922 40.7287L32.4839 41.0412C31.6519 42.3593 30.8533 43.0184 30.088 43.0184C29.3226 43.0184 28.8039 42.5323 28.5316 41.56C28.3195 40.7812 28.213 39.9775 28.215 39.1703L28.217 38.9453V38.9557L28.4254 37.4973V37.6015C27.8698 38.9196 27.3142 40.1342 26.7586 41.2454C26.4204 41.9144 26.0281 42.5548 25.5857 43.1601L25.6128 43.1205C25.1836 43.5705 24.5794 43.8497 23.9106 43.8497H23.8939C23.8502 43.8538 23.8002 43.8538 23.7502 43.8538C23.2442 43.8544 22.7563 43.6664 22.3814 43.3267L22.3834 43.3288C21.6443 42.5703 21.112 41.6349 20.8375 40.612L20.8271 40.5683C20.4178 39.4063 20.2387 38.1757 20.3 36.9452V36.966C20.4646 35.3076 20.7959 33.7888 21.2813 32.3408L21.2376 32.4888L17.4895 34.6763V34.7805C18.1731 36.2171 18.4601 37.8104 18.3208 39.3953L18.3228 39.362C18.222 41.4222 17.5646 43.4166 16.4207 45.1331L16.4478 45.0914C15.3039 46.9213 13.619 48.3499 11.6267 49.1791L11.558 49.2041C10.3603 49.7329 9.06489 50.004 7.7557 50C6.88483 50 6.03896 49.8833 5.23892 49.6624L5.30559 49.677C4.65912 49.4623 4.1103 49.0243 3.75761 48.4416L3.75136 48.4291C3.2466 47.692 2.95597 46.8295 2.91174 45.9373V45.9248C2.77996 44.6603 3.00288 43.3841 3.55551 42.2392L3.53676 42.2809C4.70342 40.2766 6.36479 38.6052 8.36198 37.4265L8.42448 37.3931C9.91476 36.3686 11.4796 35.457 13.1059 34.6659L13.3268 34.568L13.8476 34.2555C13.2226 33.7694 12.0767 32.936 10.41 31.7554C8.30804 30.3553 6.30718 28.809 4.42222 27.1281L4.47431 27.1739C2.68798 25.6436 1.42061 23.5966 0.847059 21.3153L0.830392 21.2362C0.590679 19.7583 0.853292 18.2428 1.57626 16.9318L1.55959 16.9672C2.67527 14.5412 4.30122 12.3844 6.32647 10.644L6.35147 10.6232C8.51902 8.57725 10.9437 6.82215 13.5643 5.40212L13.7456 5.31254C16.2897 3.86167 18.9597 2.64348 21.723 1.67279L22.0772 1.56445C24.949 0.535009 27.9768 0.00852073 31.0276 0.00813157H31.0317C33.6943 -0.07587 36.337 0.492013 38.73 1.66237L38.6342 1.61862C40.5093 2.47283 41.9135 4.08123 42.476 6.04799L42.4885 6.09799C42.9771 8.07994 42.8044 10.1673 41.9968 12.042L42.0197 11.9816C41.1725 14.0622 39.8969 15.9412 38.2758 17.4964L38.2696 17.5027C36.6509 19.1075 34.7249 20.3689 32.6068 21.2112L32.4922 21.2507C30.0942 22.2631 27.5309 22.8273 24.9294 22.9154L24.8898 22.9175C23.2504 23.0939 21.5923 22.9452 20.0104 22.48L20.1 22.5029C19.137 22.201 18.2474 21.7022 17.4874 21.0382L17.4957 21.0445C16.981 20.6267 16.5595 20.1058 16.2582 19.5153L16.2457 19.4882C16.0373 18.9326 16.02 18.6027 16.1936 18.4985C16.3672 18.3944 16.4887 18.377 16.5582 18.4465L17.079 18.9673C17.6603 19.5069 18.3541 19.9319 19.1208 20.2028L19.1625 20.2153C20.2167 20.582 21.4334 20.7945 22.698 20.7945C23.1043 20.7945 23.5043 20.7736 23.8981 20.7299L23.8502 20.7341C27.0767 20.3651 30.1713 19.2425 32.8839 17.4568L32.8068 17.5047C34.9858 16.2177 36.8007 14.3964 38.08 12.2128L38.1175 12.142C38.7446 11.2211 39.1196 10.0836 39.1196 8.85853C39.1196 8.10641 38.9779 7.38555 38.7196 6.72302L38.7342 6.7626C38.348 6.14648 37.8354 5.61946 37.2301 5.21646C36.6249 4.81345 35.941 4.54367 35.2236 4.425L35.1944 4.42083C32.9048 3.88062 30.5265 3.83304 28.217 4.28124L28.3212 4.26457C24.9934 4.84971 21.7725 5.932 18.7666 7.47513L18.9562 7.38555C10.4169 11.6913 6.00771 16.1005 5.72853 20.6132V20.7153C5.72853 22.5341 6.44314 24.1863 7.60778 25.4072L7.6057 25.4051C8.91884 26.8678 10.3936 28.1769 12.0017 29.3074L12.083 29.3615C13.4857 30.4055 14.8076 31.5539 16.0373 32.7971L16.0394 32.8013L16.2477 33.0096L22.9147 29.3657C23.6549 28.2881 24.577 27.3476 25.6398 26.5864L25.6732 26.5635C26.5065 25.8635 27.5649 25.4072 28.7254 25.3155L28.7441 25.3134C28.7858 25.3093 28.8337 25.3093 28.8837 25.3093C29.6609 25.3093 30.3275 25.778 30.6151 26.4489L30.6192 26.4614C30.9246 27.1548 31.032 27.9191 30.9297 28.6698L30.9317 28.649L30.7296 29.6761L31.0422 29.4678C31.227 29.3274 31.4461 29.2392 31.6766 29.2125C31.9071 29.1857 32.1406 29.2214 32.3526 29.3157L32.3443 29.3115C32.5772 29.3711 32.7774 29.5198 32.9017 29.7256C33.026 29.9313 33.0645 30.1777 33.0089 30.4116L33.011 30.4053L32.6985 31.5512C32.0735 34.0499 31.6575 35.8549 31.4505 36.966C31.3166 37.4434 31.2645 37.9401 31.2963 38.4349V38.4224C31.3311 38.839 31.3831 39.0474 31.4526 39.0474C31.522 39.0474 31.6602 38.839 31.8672 38.4224L32.1797 37.6932C32.2492 37.6932 32.2492 37.7279 32.1797 37.7973L33.3256 35.4014C36.0341 29.4317 37.4918 26.0982 37.6987 25.4009L38.3237 23.4238C38.3932 23.2849 38.671 23.1467 39.1571 23.0092C39.7388 22.856 40.3392 22.7858 40.9405 22.8008H40.9343C41.9065 22.8008 42.3927 23.0439 42.3927 23.53L42.2885 24.0509C42.0254 24.7911 41.8103 25.5476 41.6447 26.3156L41.6218 26.4468C41.517 27.1524 41.536 27.8708 41.6781 28.5698L41.6718 28.5302L41.776 28.9448C41.9885 29.8136 42.3114 30.5762 42.7344 31.272L42.7135 31.2366C43.5455 29.8491 44.3441 28.4261 45.1095 26.9677C45.7137 25.9614 46.2762 24.7947 46.7283 23.5738L46.7762 23.4279C46.9325 22.6425 47.1116 21.9799 47.3304 21.3341L47.2971 21.4508C47.3665 21.2424 47.663 21.0862 48.1867 20.982C48.6825 20.882 49.2513 20.8257 49.8326 20.8257H49.9076H49.9034C50.8757 20.8257 51.3945 21.0688 51.4597 21.5549L51.2514 21.9695C51.0035 22.6696 50.7868 23.5113 50.641 24.3759L50.6285 24.4696C50.5632 25.1811 50.6011 25.8983 50.741 26.5989L50.7326 26.551V26.9656C50.9722 27.874 51.3285 28.6719 51.7952 29.3949L51.7743 29.3615L52.0869 30.0907C53.9409 29.193 55.9751 28.7299 58.035 28.7365H58.1163H58.1121L58.11 28.7428ZM13.4435 43.8538C14.9477 42.303 15.7879 40.2266 15.7852 38.0661C15.7858 37.2204 15.6579 36.3795 15.406 35.5722L15.4227 35.6306L13.756 36.6723C12.0559 37.6411 10.585 38.7224 9.25369 39.9516L9.27035 39.937C8.24716 40.8754 7.51102 42.0848 7.14734 43.4247L7.13484 43.4767C6.82233 44.7615 6.97858 45.5949 7.60361 45.9769C7.98488 46.1519 8.43282 46.254 8.90159 46.254C9.41411 46.254 9.89955 46.1331 10.3267 45.9164L10.3079 45.9248C11.5014 45.4962 12.5721 44.7824 13.4268 43.8455L13.433 43.8393L13.4435 43.8538ZM27.3962 34.2617C27.7434 33.3589 28.1254 32.2825 28.542 31.0324C29.0976 29.3657 29.2886 28.3941 29.115 28.1177C28.9414 27.8413 28.6115 27.8066 28.1254 28.0136C27.564 28.283 27.0684 28.672 26.6732 29.1532L26.667 29.1615C26.2182 29.7317 25.8129 30.3349 25.4544 30.9658L25.4169 31.0366C24.9762 31.7641 24.6316 32.5456 24.3919 33.3617L24.3731 33.4325C23.8878 34.7735 23.6759 36.1981 23.7502 37.6223V37.5973C23.8196 38.9849 24.0418 39.7314 24.4169 39.837C24.7919 39.9426 25.2259 39.4391 25.719 38.3265C26.1961 37.4661 26.6211 36.466 26.9378 35.4181L26.967 35.3055C27.1739 34.8139 27.3156 34.4659 27.392 34.2617H27.3962ZM38.9508 39.7828C39.6687 39.4653 40.2885 38.9615 40.7461 38.3237C41.2036 37.6859 41.4823 36.9373 41.5531 36.1556L41.5551 36.1389V36.0347L40.4093 37.4931L38.3279 39.7849C38.3119 39.7972 38.2989 39.813 38.2899 39.831C38.2809 39.8491 38.2761 39.8689 38.2758 39.8891C38.2758 39.9308 38.2967 39.9683 38.3258 39.9933C38.3925 40.0613 38.6008 39.9919 38.9508 39.7849V39.7828ZM47.9075 37.8036C48.6857 37.5849 49.3713 37.1183 49.8601 36.4745C50.349 35.8308 50.6143 35.0451 50.616 34.2367V34.1555V34.1597C50.5951 33.743 50.5201 33.3513 50.3972 32.9804L50.4055 33.0117C49.5951 33.7326 48.9305 34.5951 48.4492 35.5681L48.4263 35.616C47.7999 36.8646 47.6248 37.5925 47.9013 37.7994L47.9075 37.8036Z" fill="#F8F8F8"/>
</svg>
