<svg width="40" height="50" viewBox="0 0 40 50" fill="none" xmlns="http://www.w3.org/2000/svg">
<path d="M1.9204 0.000277326C1.85761 0.00259073 1.79612 0.0188802 1.74042 0.0479593C1.68472 0.0770384 1.6362 0.118175 1.59841 0.168373C1.56061 0.218572 1.53449 0.276568 1.52194 0.338138C1.50939 0.399708 1.51073 0.463302 1.52587 0.524288L10.6554 37.4762C10.6733 37.5481 10.7097 37.614 10.7611 37.6673C10.8125 37.7207 10.877 37.7596 10.9481 37.7801C11.0193 37.8007 11.0946 37.8022 11.1665 37.7845C11.2384 37.7668 11.3044 37.7304 11.3578 37.6792L38.8194 11.2604C38.8729 11.209 38.9118 11.1444 38.9324 11.0732C38.953 11.002 38.9545 10.9266 38.9367 10.8546C38.9189 10.7826 38.8825 10.7166 38.8311 10.6631C38.7798 10.6097 38.7152 10.5707 38.644 10.55L2.0525 0.0164614C2.0096 0.00412273 1.96501 -0.00133975 1.9204 0.000277326ZM2.5214 1.03037L37.7062 11.1593L11.3001 36.5625L2.5214 1.03037Z" fill="white"/>
<path d="M20.2197 5.26706C20.1128 5.26883 20.0106 5.31103 19.9336 5.38516L6.2092 18.597C6.15577 18.6484 6.11682 18.713 6.09627 18.7842C6.07571 18.8555 6.07427 18.9309 6.09209 19.0029C6.10991 19.0749 6.14636 19.1409 6.19778 19.1943C6.2492 19.2478 6.31378 19.2867 6.38503 19.3073L24.6699 24.5772C24.7411 24.5977 24.8165 24.5991 24.8884 24.5812C24.9604 24.5634 25.0264 24.5269 25.0798 24.4755C25.1332 24.4241 25.1721 24.3596 25.1927 24.2883C25.2132 24.2171 25.2147 24.1417 25.1969 24.0698L20.6366 5.58811C20.6136 5.49527 20.5598 5.41297 20.484 5.35465C20.4082 5.29633 20.3153 5.26545 20.2197 5.26706ZM19.9923 6.50141L24.2014 23.5633L7.32239 18.698L19.9923 6.50141Z" fill="white"/>
<path d="M13.4078 11.8058C13.3452 11.8083 13.2839 11.8246 13.2284 11.8537C13.1729 11.8828 13.1246 11.9239 13.0869 11.9739C13.0492 12.024 13.0231 12.0819 13.0105 12.1433C12.998 12.2047 12.9992 12.2681 13.0142 12.3289L15.2782 21.5092C15.2959 21.5813 15.3323 21.6474 15.3838 21.7009C15.4352 21.7544 15.4998 21.7935 15.5711 21.8141C15.6424 21.8347 15.7179 21.8362 15.7899 21.8184C15.862 21.8005 15.9281 21.7641 15.9815 21.7126L22.7994 15.1423C22.8528 15.0909 22.8917 15.0262 22.9122 14.955C22.9328 14.8837 22.9342 14.8083 22.9163 14.7363C22.8984 14.6643 22.8619 14.5982 22.8105 14.5448C22.759 14.4914 22.6944 14.4525 22.6231 14.432L13.5404 11.822C13.4973 11.8096 13.4526 11.8041 13.4078 11.8058ZM14.0088 12.8355L21.6862 15.0413L15.9229 20.5954L14.0088 12.8355Z" fill="white"/>
<path d="M11.1496 2.63516C11.0426 2.63682 10.9402 2.67903 10.8631 2.75326L4.04526 9.32702C3.99183 9.37845 3.95288 9.44304 3.93233 9.51429C3.91177 9.58554 3.91033 9.66095 3.92815 9.73294C3.94597 9.80493 3.98242 9.87095 4.03384 9.92439C4.08526 9.97783 4.14984 10.0168 4.22109 10.0374L13.3042 12.6474C13.3755 12.6679 13.4509 12.6693 13.5228 12.6514C13.5948 12.6336 13.6607 12.5971 13.7141 12.5457C13.7676 12.4943 13.8065 12.4297 13.8271 12.3585C13.8476 12.2873 13.8491 12.2119 13.8313 12.14L11.5669 2.95709C11.544 2.86417 11.4903 2.78176 11.4145 2.72336C11.3386 2.66496 11.2453 2.63358 11.1496 2.63516ZM10.9213 3.87083L12.8358 11.6335L5.15758 9.42718L10.9213 3.87083ZM29.3176 7.87046C29.2109 7.87234 29.1089 7.91453 29.032 7.98856L22.2129 14.5593C22.1597 14.6108 22.121 14.6754 22.1006 14.7466C22.0803 14.8179 22.079 14.8932 22.097 14.965C22.1149 15.0369 22.1514 15.1028 22.2029 15.1561C22.2543 15.2094 22.3188 15.2482 22.39 15.2687L31.4723 17.8787C31.5435 17.8992 31.6189 17.9006 31.6908 17.8828C31.7628 17.8649 31.8288 17.8285 31.8822 17.7771C31.9356 17.7257 31.9745 17.6611 31.9951 17.5899C32.0157 17.5187 32.0171 17.4433 31.9994 17.3713L29.7349 8.19151C29.7119 8.09867 29.6582 8.01637 29.5824 7.95805C29.5066 7.89973 29.4132 7.86885 29.3176 7.87046ZM29.0902 9.10569L31.0047 16.8652L23.3269 14.659L29.0902 9.10569ZM15.6811 20.9952C15.5744 20.9971 15.4723 21.0393 15.3955 21.1133L8.57633 27.6831C8.52292 27.7347 8.48402 27.7993 8.46354 27.8707C8.44307 27.942 8.44175 28.0175 8.4597 28.0895C8.47766 28.1615 8.51427 28.2275 8.56584 28.2809C8.61741 28.3342 8.68213 28.3731 8.75348 28.3935L17.8392 31.0035C17.9105 31.0239 17.9858 31.0252 18.0577 31.0073C18.1295 30.9894 18.1955 30.953 18.2488 30.9016C18.3022 30.8502 18.3411 30.7857 18.3616 30.7145C18.3821 30.6433 18.3836 30.568 18.3659 30.4961L16.0984 21.3163C16.0754 21.2234 16.0217 21.1411 15.9459 21.0828C15.8701 21.0245 15.7767 20.9936 15.6811 20.9952ZM15.4536 22.23L17.3704 29.9896L9.6904 27.7842L15.4536 22.23Z" fill="white"/>
<path d="M3.18539 47.1766C2.98769 47.6319 2.61414 47.83 2.25897 47.83C1.80976 47.83 1.38897 47.5033 1.38897 46.8467V44.5198H3.27681V43.9201H1.38897V42.2837L0.723243 42.2365V43.9201H0.00415039V44.5198H0.723243V46.8467C0.723243 47.8865 1.47995 48.4861 2.26859 48.4861C2.84597 48.4861 3.44609 48.1756 3.78201 47.4469L3.18539 47.1766ZM8.76668 47.8488V46.0524C8.76668 44.9405 8.30172 43.7976 7.14916 43.7976C6.59628 43.7976 6.01846 44.0517 5.80195 44.4445V42.2837L5.13884 42.2365V48.3637H5.80151V45.154C5.99966 44.7616 6.27916 44.4629 6.82241 44.4629C7.60755 44.4629 8.05677 45.0976 8.05677 45.8827V48.3637H8.81348C8.76624 48.2036 8.76668 48.0181 8.76668 47.8488ZM13.8917 44.6484L14.3029 44.0045C13.8008 43.8068 13.6311 43.7976 13.4618 43.7976C13.1162 43.7976 12.4159 43.854 12.1049 44.4445C12.1049 44.3409 12.1706 44.0045 12.2274 43.9196H10.5911V44.4161L11.4987 44.4633V47.8204H10.1231V48.3637H13.5086C13.4618 48.2036 13.4618 48.0181 13.4618 47.8488V47.8204H12.1426V45.2673C12.2935 44.6015 13.1346 44.2372 13.8917 44.6484ZM17.2585 43.7976C15.9865 43.7976 15.3207 44.6295 15.2862 46.0616V46.464C15.2862 47.6415 16.1278 48.4861 17.2961 48.4861C17.6149 48.4854 17.93 48.4183 18.2215 48.289C18.5129 48.1598 18.7742 47.9713 18.9888 47.7356L18.5965 47.2492C18.0908 47.7356 17.67 47.8773 17.2773 47.8773C16.4921 47.8773 15.9397 47.296 15.9397 46.4636L19.1117 46.4448L19.1209 46.0616C19.1778 44.6204 18.5212 43.7976 17.2585 43.7976ZM18.4206 45.8639H15.9493C15.9865 44.9497 16.332 44.3785 17.1924 44.3785C18.0532 44.3785 18.4644 44.9121 18.4206 45.8639ZM22.4028 43.7976C21.1308 43.7976 20.4651 44.6295 20.4274 46.0616V46.464C20.4274 47.6415 21.269 48.4861 22.4404 48.4861C22.7591 48.485 23.0741 48.4177 23.3655 48.2885C23.6569 48.1593 23.9183 47.971 24.1331 47.7356L23.7408 47.2492C23.2351 47.7356 22.8144 47.8773 22.4216 47.8773C21.6364 47.8773 21.084 47.296 21.084 46.4636L24.2561 46.4448L24.2652 46.0616C24.3221 44.6204 23.6656 43.7976 22.4028 43.7976ZM23.5619 45.8639H21.0932C21.1308 44.9497 21.4763 44.3785 22.3367 44.3785C23.1975 44.3785 23.6091 44.9121 23.5619 45.8639ZM27.0226 47.9901C27.0226 48.3072 27.202 48.4861 27.5191 48.4861C27.8266 48.4861 28.0059 48.3072 28.0059 47.9901C28.0059 47.6796 27.8266 47.5033 27.5191 47.5033C27.2112 47.5033 27.0226 47.6791 27.0226 47.9901ZM33.4481 43.1349C33.756 43.1349 33.9354 42.9652 33.9354 42.6385C33.9354 42.3279 33.756 42.1613 33.4485 42.1613C33.1406 42.1613 32.9617 42.3275 32.9617 42.6385C32.9617 42.9652 33.1306 43.1349 33.4481 43.1349ZM32.2614 43.9201V44.4161L33.1782 44.4633V48.3637C33.1782 49.0263 32.7574 49.347 32.3082 49.347C31.9408 49.347 31.5673 49.1488 31.3722 48.6996L30.7817 48.9607C31.1181 49.7017 31.7177 50 32.299 50C33.0842 50 33.8409 49.4095 33.8409 48.3641L33.8505 43.9201H32.2614ZM38.0684 45.8202C37.2172 45.6596 36.8244 45.4527 36.8244 45.0976C36.8244 44.6956 37.3113 44.4065 37.9927 44.4065C38.4796 44.4065 38.8063 44.5543 39.1707 44.9405L39.5915 44.5198C39.2647 44.0517 38.6681 43.7976 37.9175 43.7976C36.8905 43.7976 36.1963 44.322 36.1963 45.1164C36.1963 45.8105 36.73 46.2125 38.0116 46.4732C38.7875 46.6241 39.0228 46.7619 39.0228 47.0637C39.0228 47.5033 38.4892 47.8865 37.8799 47.8865C37.3585 47.8865 36.8905 47.5978 36.4601 47.0921L36.0113 47.5505C36.4697 48.1568 37.0759 48.4866 37.8703 48.4866C38.9476 48.4866 39.6479 47.8865 39.6479 47.0541C39.6479 46.3792 39.1895 46.0336 38.0684 45.8202Z" fill="white"/>
</svg>
