<svg width="51" height="50" viewBox="0 0 51 50" fill="none" xmlns="http://www.w3.org/2000/svg">
<path d="M25.3838 0C11.6088 0 0.383789 11.225 0.383789 25C0.383789 38.775 11.6088 50 25.3838 50C39.1588 50 50.3838 38.775 50.3838 25C50.3838 11.225 39.1588 0 25.3838 0ZM2.90879 25C2.90879 21.75 3.60879 18.65 4.85879 15.85L15.5838 45.225C8.08379 41.575 2.90879 33.9 2.90879 25ZM25.3838 47.475C23.1838 47.475 21.0588 47.15 19.0338 46.55L25.7838 26.95L32.6838 45.875C32.7338 45.975 32.7838 46.1 32.8338 46.175C30.5088 47.025 28.0088 47.475 25.3838 47.475ZM28.4838 14.45C29.8338 14.375 31.0588 14.225 31.0588 14.225C32.2588 14.075 32.1338 12.3 30.9088 12.375C30.9088 12.375 27.2588 12.65 24.9088 12.65C22.7088 12.65 18.9838 12.375 18.9838 12.375C17.7838 12.325 17.6338 14.175 18.8588 14.25C18.8588 14.25 20.0088 14.4 21.2088 14.475L24.7088 24.075L19.7838 38.825L11.6088 14.45C12.9588 14.4 14.1838 14.25 14.1838 14.25C15.3838 14.1 15.2588 12.325 14.0338 12.4C14.0338 12.4 10.3838 12.675 8.03379 12.675C7.60879 12.675 7.10879 12.675 6.58379 12.65C10.6338 6.55 17.5338 2.525 25.3838 2.525C31.2338 2.525 36.5588 4.75 40.5588 8.425C40.4588 8.425 40.3588 8.4 40.2588 8.4C38.0588 8.4 36.4838 10.325 36.4838 12.4C36.4838 14.25 37.5588 15.825 38.6838 17.675C39.5338 19.175 40.5338 21.1 40.5338 23.875C40.5338 25.8 39.7838 28.025 38.8338 31.15L36.5838 38.65L28.4838 14.45ZM45.1088 14.225C47.9168 19.3641 48.6076 25.3964 47.0339 31.0372C45.4603 36.6781 41.7466 41.4817 36.6838 44.425L43.5588 24.575C44.8338 21.375 45.2588 18.8 45.2588 16.525C45.2588 15.7 45.2088 14.925 45.1088 14.225Z" fill="#F8F8F8"/>
</svg>
